<svg xmlns="http://www.w3.org/2000/svg" xmlns:xlink="http://www.w3.org/1999/xlink" width="500" height="140" zoomAndPan="magnify" viewBox="0 0 375 104.999996" preserveAspectRatio="xMidYMid meet" version="1.0"><defs><g/></defs><g fill="#000000" fill-opacity="1"><g transform="translate(142.122418, 76.70617)"><g><path d="M 3.71875 -51.203125 L 19.609375 -51.203125 C 24.410156 -51.203125 28.238281 -50.175781 31.09375 -48.125 C 33.945312 -46.082031 35.375 -42.765625 35.375 -38.171875 C 35.375 -33.035156 33.242188 -29.375 28.984375 -27.1875 C 36.265625 -25.90625 39.90625 -21.601562 39.90625 -14.28125 C 39.90625 -9.96875 38.414062 -6.507812 35.4375 -3.90625 C 32.457031 -1.300781 28.363281 0 23.15625 0 L 3.71875 0 Z M 15.390625 -31.15625 L 16.328125 -31.15625 C 18.929688 -31.15625 20.875 -31.609375 22.15625 -32.515625 C 23.4375 -33.429688 24.078125 -34.921875 24.078125 -36.984375 C 24.078125 -40.460938 21.492188 -42.203125 16.328125 -42.203125 L 15.390625 -42.203125 Z M 15.390625 -9 L 19.046875 -9 C 24.765625 -9 27.625 -10.898438 27.625 -14.703125 C 27.625 -16.984375 26.90625 -18.617188 25.46875 -19.609375 C 24.039062 -20.597656 21.898438 -21.09375 19.046875 -21.09375 L 15.390625 -21.09375 Z M 15.390625 -9 "/></g></g></g><g fill="#67ca3f" fill-opacity="1"><g transform="translate(177.618509, 76.70617)"><g><path d="M 22.59375 -52.125 C 25.363281 -52.125 28.070312 -51.722656 30.71875 -50.921875 C 33.363281 -50.117188 35.328125 -49.320312 36.609375 -48.53125 L 38.484375 -47.296875 L 33.765625 -37.984375 C 33.390625 -38.234375 32.867188 -38.550781 32.203125 -38.9375 C 31.546875 -39.332031 30.304688 -39.859375 28.484375 -40.515625 C 26.660156 -41.179688 24.960938 -41.515625 23.390625 -41.515625 C 21.453125 -41.515625 19.953125 -41.097656 18.890625 -40.265625 C 17.835938 -39.441406 17.3125 -38.328125 17.3125 -36.921875 C 17.3125 -36.222656 17.5625 -35.570312 18.0625 -34.96875 C 18.5625 -34.375 19.410156 -33.734375 20.609375 -33.046875 C 21.804688 -32.367188 22.859375 -31.820312 23.765625 -31.40625 C 24.679688 -30.988281 26.085938 -30.367188 27.984375 -29.546875 C 31.296875 -28.140625 34.117188 -26.222656 36.453125 -23.796875 C 38.796875 -21.378906 39.96875 -18.640625 39.96875 -15.578125 C 39.96875 -12.640625 39.4375 -10.070312 38.375 -7.875 C 37.320312 -5.6875 35.875 -3.972656 34.03125 -2.734375 C 32.195312 -1.492188 30.160156 -0.570312 27.921875 0.03125 C 25.691406 0.632812 23.273438 0.9375 20.671875 0.9375 C 18.429688 0.9375 16.234375 0.707031 14.078125 0.25 C 11.929688 -0.207031 10.132812 -0.773438 8.6875 -1.453125 C 7.238281 -2.140625 5.9375 -2.8125 4.78125 -3.46875 C 3.625 -4.132812 2.773438 -4.695312 2.234375 -5.15625 L 1.421875 -5.828125 L 7.265625 -15.640625 C 7.753906 -15.222656 8.429688 -14.691406 9.296875 -14.046875 C 10.171875 -13.410156 11.710938 -12.554688 13.921875 -11.484375 C 16.140625 -10.410156 18.097656 -9.875 19.796875 -9.875 C 24.722656 -9.875 27.1875 -11.546875 27.1875 -14.890625 C 27.1875 -15.597656 27.007812 -16.25 26.65625 -16.84375 C 26.300781 -17.445312 25.675781 -18.046875 24.78125 -18.640625 C 23.894531 -19.242188 23.109375 -19.722656 22.421875 -20.078125 C 21.742188 -20.429688 20.628906 -20.96875 19.078125 -21.6875 C 17.523438 -22.414062 16.378906 -22.960938 15.640625 -23.328125 C 12.535156 -24.859375 10.132812 -26.769531 8.4375 -29.0625 C 6.738281 -31.363281 5.890625 -33.84375 5.890625 -36.5 C 5.890625 -41.082031 7.585938 -44.832031 10.984375 -47.75 C 14.378906 -50.664062 18.25 -52.125 22.59375 -52.125 Z M 22.59375 -52.125 "/></g></g></g><g fill="#000000" fill-opacity="1"><g transform="translate(213.4896, 76.70617)"><g><path d="M 10.796875 -13.28125 C 12.785156 -13.28125 14.472656 -12.585938 15.859375 -11.203125 C 17.242188 -9.816406 17.9375 -8.128906 17.9375 -6.140625 C 17.9375 -4.203125 17.242188 -2.535156 15.859375 -1.140625 C 14.472656 0.242188 12.785156 0.9375 10.796875 0.9375 C 8.847656 0.9375 7.179688 0.242188 5.796875 -1.140625 C 4.410156 -2.535156 3.71875 -4.203125 3.71875 -6.140625 C 3.71875 -8.128906 4.410156 -9.816406 5.796875 -11.203125 C 7.179688 -12.585938 8.847656 -13.28125 10.796875 -13.28125 Z M 10.796875 -13.28125 "/></g></g></g><g fill="#c1ff72" fill-opacity="1"><g transform="translate(229.32163, 76.70617)"><g/></g></g></svg>